<svg xmlns="http://www.w3.org/2000/svg" xmlns:xlink="http://www.w3.org/1999/xlink" width="50" zoomAndPan="magnify" viewBox="0 0 37.5 37.499999" height="50" preserveAspectRatio="xMidYMid meet" version="1.0"><defs><clipPath id="7cbf0932cd"><path d="M 0 0 L 37.007812 0 L 37.007812 37.007812 L 0 37.007812 Z M 0 0 " clip-rule="nonzero"/></clipPath></defs><g clip-path="url(#7cbf0932cd)"><path fill="#e20a17" d="M 35.957031 12.335938 C 33.414062 5.152344 26.5625 0 18.503906 0 C 10.445312 0 3.59375 5.152344 1.054688 12.335938 C 0.371094 14.269531 0 16.339844 0 18.503906 C 0 20.667969 0.371094 22.742188 1.054688 24.667969 C 3.59375 31.855469 10.449219 37.007812 18.503906 37.007812 C 26.558594 37.007812 33.414062 31.855469 35.953125 24.667969 C 36.636719 22.738281 37.007812 20.667969 37.007812 18.503906 C 37.007812 16.339844 36.636719 14.269531 35.957031 12.335938 Z M 35.957031 12.335938 " fill-opacity="1" fill-rule="nonzero"/></g><path fill="#ededed" d="M 17.054688 25.4375 C 13.230469 25.4375 10.121094 22.335938 10.121094 18.503906 C 10.121094 14.671875 13.222656 11.570312 17.054688 11.570312 C 18.773438 11.570312 20.34375 12.191406 21.554688 13.222656 C 20.082031 11.535156 17.914062 10.46875 15.5 10.46875 C 11.066406 10.46875 7.46875 14.0625 7.46875 18.5 C 7.46875 22.933594 11.066406 26.527344 15.5 26.527344 C 17.914062 26.527344 20.082031 25.460938 21.554688 23.773438 C 20.34375 24.816406 18.773438 25.4375 17.054688 25.4375 Z M 17.054688 25.4375 " fill-opacity="1" fill-rule="nonzero"/><path fill="#ededed" d="M 24.390625 14.535156 L 26.351562 16.753906 L 29.066406 15.558594 L 27.558594 18.109375 L 29.535156 20.316406 L 26.644531 19.675781 L 25.152344 22.234375 L 24.875 19.285156 L 21.976562 18.664062 L 24.691406 17.484375 Z M 24.390625 14.535156 " fill-opacity="1" fill-rule="nonzero"/></svg>
